<svg id="SvgjsSvg1001" width="288" height="288" xmlns="http://www.w3.org/2000/svg" version="1.1" xmlns:xlink="http://www.w3.org/1999/xlink" xmlns:svgjs="http://svgjs.com/svgjs"><defs id="SvgjsDefs1002"></defs><g id="SvgjsG1008" transform="matrix(0.9167,0,0,0.9167,11.994284838867202,11.994696661376963)"><svg xmlns="http://www.w3.org/2000/svg" width="288" height="288" viewBox="0 0 32 32"><g transform="translate(-3794.83 -1472.607)" fill="#000000" class="color000 svgShape"><path fill="#8ae4e1" d="m 3824.4648,468.239 a 12.375,12.375 0 0 1 -12.375,12.375 12.375,12.375 0 0 1 -12.375,-12.375 12.375,12.375 0 0 1 12.375,-12.375 12.375,12.375 0 0 1 12.375,12.375 z" transform="translate(0 1020.362)" class="color9ee8d9 svgShape"></path><g fill="#3a3640" transform="translate(464.943 -384.72)" class="color3a3640 svgShape"><path fill-rule="evenodd" d="m 3338.2494,1860.8256 a 0.49999942,0.49987878 0 0 0 -0.4999,0.4999 l 0,2.4991 a 0.49999942,0.49987878 0 0 0 0.4999,0.4999 l 9.999,0 a 0.49999942,0.49987878 0 0 0 0.5,-0.4999 l 0,-2.4991 a 0.49999942,0.49987878 0 0 0 -0.5,-0.4999 z m 0.5,0.9997 8.9991,0 0,1.4995 -8.9991,0 z" color="#000" enable-background="accumulate" font-family="sans-serif" font-weight="400" overflow="visible" style="line-height:normal;text-indent:0;text-align:start;text-decoration-line:none;text-decoration-style:solid;text-decoration-color:#000;text-transform:none;white-space:normal;isolation:auto;mix-blend-mode:normal;solid-color:#000;solid-opacity:1" fill="#000000" class="color000 svgShape"></path><path fill-rule="evenodd" d="M3343.2509 1858.5764c-1.373-.001-2.4996 1.1185-2.5017 2.4894a.49935247.49923199 0 10.9979 0c0-.8299.6684-1.4923 1.5038-1.4916.8353.0006 1.4999.6656 1.4999 1.4955a.49935247.49923199 0 10.9979 0c0-1.3709-1.1248-2.4923-2.4978-2.4933zM3332.7499 1862.0752a.49999942.49987878 0 00-.4999.4998l0 6.4978a.49999942.49987878 0 10.9999 0l0-5.9979 4.7495 0a.49999942.49987878 0 100-.9997z" color="#000" enable-background="accumulate" font-family="sans-serif" font-weight="400" overflow="visible" style="line-height:normal;text-indent:0;text-align:start;text-decoration-line:none;text-decoration-style:solid;text-decoration-color:#000;text-transform:none;white-space:normal;isolation:auto;mix-blend-mode:normal;solid-color:#000;solid-opacity:1" fill="#000000" class="color000 svgShape"></path><path d="m 3333.2498,1871.0723 c 0,0.276 -0.2239,0.4998 -0.5,0.4998 -0.276,0 -0.4999,-0.2238 -0.4999,-0.4998 0,-0.276 0.2239,-0.4999 0.4999,-0.4999 0.2761,0 0.5,0.2239 0.5,0.4999 z" fill="#000000" class="color000 svgShape"></path><path fill-rule="evenodd" d="M3332.7421 1872.5639a.49999942.49987878 0 00-.4921.5076l0 14.4951a.49999942.49987878 0 00.4999.4998l20.998.01a.49999942.49987878 0 00.4999-.4998l0-6.4978a.49999942.49987878 0 10-.9999 0l0 5.9979-19.998-.01 0-13.9952a.49999942.49987878 0 00-.5078-.5076zM3348.4984 1862.0713a.49999942.49987878 0 100 .9997l4.7515.01 0 13.9952a.49999942.49987878 0 10.9999 0l0-14.4951a.49999942.49987878 0 00-.4999-.4998z" color="#000" enable-background="accumulate" font-family="sans-serif" font-weight="400" overflow="visible" style="line-height:normal;text-indent:0;text-align:start;text-decoration-line:none;text-decoration-style:solid;text-decoration-color:#000;text-transform:none;white-space:normal;isolation:auto;mix-blend-mode:normal;solid-color:#000;solid-opacity:1" fill="#000000" class="color000 svgShape"></path><path d="m 3353.2477,1879.0763 c 0,-0.2761 0.2239,-0.4999 0.5,-0.4999 0.2761,0 0.4999,0.2238 0.4999,0.4999 0,0.276 -0.2238,0.4998 -0.4999,0.4998 -0.2761,0 -0.5,-0.2238 -0.5,-0.4998 z" fill="#000000" class="color000 svgShape"></path></g></g></svg></g></svg>