<svg id="SvgjsSvg1001" width="288" height="288" xmlns="http://www.w3.org/2000/svg" version="1.1" xmlns:xlink="http://www.w3.org/1999/xlink" xmlns:svgjs="http://svgjs.com/svgjs"><defs id="SvgjsDefs1002"></defs><g id="SvgjsG1008" transform="matrix(0.9167,0,0,0.9167,11.995200000000011,11.995200000000011)"><svg xmlns="http://www.w3.org/2000/svg" viewBox="0 0 24 24" width="288" height="288"><g data-name="Layer 2" fill="#858d94" class="color000 svgShape"><g data-name="options" fill="#858d94" class="color000 svgShape"><rect width="24" height="24" opacity="0" fill="#858d94" class="color000 svgShape"></rect><path d="M7 14.18V3a1 1 0 0 0-2 0v11.18a3 3 0 0 0 0 5.64V21a1 1 0 0 0 2 0v-1.18a3 3 0 0 0 0-5.64zM6 18a1 1 0 1 1 1-1 1 1 0 0 1-1 1zM21 13a3 3 0 0 0-2-2.82V3a1 1 0 0 0-2 0v7.18a3 3 0 0 0 0 5.64V21a1 1 0 0 0 2 0v-5.18A3 3 0 0 0 21 13zm-3 1a1 1 0 1 1 1-1 1 1 0 0 1-1 1zM15 5a3 3 0 1 0-4 2.82V21a1 1 0 0 0 2 0V7.82A3 3 0 0 0 15 5zm-3 1a1 1 0 1 1 1-1 1 1 0 0 1-1 1z" fill="#858d94" class="color000 svgShape"></path></g></g></svg></g></svg>